<svg xmlns="http://www.w3.org/2000/svg" viewBox="0 0 400 294" width="400" height="294">
  <path fill="currentColor" fill-rule="evenodd" d="&#xA;M 65.00 171.27 L 53.89 171.00 L 53.73 150.00 L 53.00 148.73 L 46.00 159.72 L 39.00 159.33 L 33.20 149.00 L 32.27 149.00 L 32.00 170.93 L 20.76 171.00 L 21.00 122.65 L 32.00 122.86 L 43.00 143.53 L 54.00 122.75 L 65.36 123.00 L 65.00 171.27 Z M 96.00 171.27 L 85.00 170.96 L 84.71 151.00 L 71.00 122.66 L 83.00 122.83 L 89.81 139.00 L 91.00 139.69 L 98.36 123.00 L 110.74 123.00 L 96.61 151.00 L 96.00 171.27 Z M 127.00 171.37 L 117.00 171.24 L 116.48 170.00 L 116.63 123.00 L 149.00 122.95 L 149.00 132.04 L 128.21 133.00 L 128.08 141.00 L 129.00 141.83 L 145.64 142.00 L 146.26 151.00 L 145.00 151.74 L 128.55 152.00 L 128.27 170.00 L 127.00 171.37 Z M 167.00 171.37 L 157.00 171.23 L 156.48 170.00 L 157.00 122.65 L 168.16 123.00 L 168.26 170.00 L 167.00 171.37 Z M 198.00 171.37 L 187.72 171.00 L 187.55 133.00 L 176.00 132.33 L 176.00 122.71 L 210.88 123.00 L 210.90 132.00 L 199.20 133.00 L 199.26 170.00 L 198.00 171.37 Z M 255.00 171.26 L 245.00 170.85 L 230.00 147.78 L 229.28 171.00 L 218.17 171.00 L 218.00 122.99 L 228.00 122.71 L 243.00 146.16 L 243.75 145.00 L 243.77 123.00 L 255.38 123.00 L 255.00 171.26 Z M 298.00 171.23 L 266.15 171.00 L 266.00 122.95 L 298.37 123.00 L 298.00 132.37 L 278.00 132.48 L 277.43 134.00 L 278.00 141.81 L 295.00 141.84 L 295.52 143.00 L 295.00 151.66 L 277.74 152.00 L 277.61 161.00 L 298.00 161.36 L 298.00 171.23 Z M 323.00 171.16 L 318.00 171.20 L 310.00 169.60 L 305.00 167.06 L 303.07 165.00 L 310.00 158.30 L 314.00 160.30 L 319.00 161.34 L 324.00 161.06 L 327.42 159.00 L 327.96 156.00 L 326.00 153.32 L 315.00 151.21 L 309.00 148.19 L 306.46 145.00 L 304.81 139.00 L 305.64 133.00 L 308.54 128.00 L 314.31 124.00 L 322.00 122.57 L 332.00 123.95 L 338.34 128.00 L 331.00 135.37 L 326.00 132.59 L 319.00 132.89 L 316.62 135.00 L 316.85 139.00 L 319.00 140.46 L 328.97 142.00 L 334.00 143.96 L 338.20 149.00 L 339.46 155.00 L 338.57 161.00 L 336.00 165.27 L 330.00 169.37 L 323.00 171.16 Z M 363.00 171.21 L 358.00 171.21 L 350.00 169.61 L 345.00 167.06 L 343.05 165.00 L 350.00 158.30 L 354.00 160.28 L 359.00 161.32 L 364.00 161.05 L 367.46 159.00 L 367.92 156.00 L 366.00 153.28 L 355.00 151.21 L 349.00 148.18 L 346.47 145.00 L 344.82 139.00 L 345.64 133.00 L 348.54 128.00 L 355.00 123.77 L 362.00 122.57 L 372.00 123.99 L 378.32 128.00 L 371.00 135.37 L 366.00 132.59 L 359.00 132.90 L 356.62 135.00 L 356.86 139.00 L 359.00 140.46 L 368.97 142.00 L 374.00 143.92 L 378.21 149.00 L 379.43 155.00 L 378.58 161.00 L 376.00 165.25 L 370.00 169.37 L 363.00 171.21 Z&#xA;"></path>
</svg>